<svg xmlns="http://www.w3.org/2000/svg" viewBox="0 0 680 680" width="680" height="680">
  <defs>
    <style>
      .anchor-fill { fill: #1a365d; }
      .wheel-fill { fill: #2c5282; }
      .chain-fill { fill: #2d3748; }
    </style>
  </defs>
  
  <!-- Maritime Anchor with Ship Wheel -->
  <g transform="translate(340, 340)">
    <!-- Anchor -->
    <path class="anchor-fill" d="M0,-280 L0,-220 M-30,-250 L30,-250 M-40,-240 C-40,-250 -30,-260 0,-260 C30,-260 40,-250 40,-240 M0,-220 L0,180 M-50,150 C-50,150 -80,180 -80,220 C-80,250 -50,280 0,280 C50,280 80,250 80,220 C80,180 50,150 50,150 M-80,220 C-80,200 -60,180 -40,180 L-20,200 M80,220 C80,200 60,180 40,180 L20,200"/>
    
    <!-- Ship Wheel -->
    <circle class="wheel-fill" cx="0" cy="-50" r="80" fill="none" stroke="#2c5282" stroke-width="8"/>
    <circle class="wheel-fill" cx="0" cy="-50" r="20"/>
    
    <!-- Wheel spokes -->
    <g stroke="#2c5282" stroke-width="6" fill="none">
      <line x1="0" y1="-130" x2="0" y2="-70"/>
      <line x1="0" y1="30" x2="0" y2="-30"/>
      <line x1="-80" y1="-50" x2="-20" y2="-50"/>
      <line x1="80" y1="-50" x2="20" y2="-50"/>
      <line x1="-56" y1="-106" x2="-14" y2="-64"/>
      <line x1="56" y1="-106" x2="14" y2="-64"/>
      <line x1="-56" y1="6" x2="-14" y2="-36"/>
      <line x1="56" y1="6" x2="14" y2="-36"/>
    </g>
    
    <!-- Wheel handles -->
    <g fill="#2c5282">
      <rect x="-6" y="-136" width="12" height="12" rx="2"/>
      <rect x="-6" y="24" width="12" height="12" rx="2"/>
      <rect x="-86" y="-56" width="12" height="12" rx="2"/>
      <rect x="74" y="-56" width="12" height="12" rx="2"/>
    </g>
    
    <!-- Chain -->
    <g class="chain-fill" fill="none" stroke="#2d3748" stroke-width="4">
      <ellipse cx="-15" cy="50" rx="8" ry="15"/>
      <ellipse cx="15" cy="70" rx="8" ry="15"/>
      <ellipse cx="-15" cy="90" rx="8" ry="15"/>
      <ellipse cx="15" cy="110" rx="8" ry="15"/>
      <ellipse cx="-15" cy="130" rx="8" ry="15"/>
    </g>
  </g>
</svg>